<?xml version="1.0" standalone="no"?>
<!DOCTYPE svg PUBLIC "-//W3C//DTD SVG 20010904//EN"
 "http://www.w3.org/TR/2001/REC-SVG-20010904/DTD/svg10.dtd">
<svg version="1.0" xmlns="http://www.w3.org/2000/svg"
 width="300.000000pt" height="300.000000pt" viewBox="0 0 300.000000 300.000000"
 preserveAspectRatio="xMidYMid meet">
<metadata>
Created by potrace 1.11, written by Peter Selinger 2001-2013
</metadata>
<g transform="translate(0.000000,300.000000) scale(0.100000,-0.100000)"
fill="#000000" stroke="none">
<path d="M1245 2930 c-219 -41 -376 -105 -563 -229 -290 -195 -509 -509 -595
-856 -31 -124 -40 -224 -34 -403 7 -223 34 -353 114 -536 196 -447 610 -770
1093 -853 115 -20 344 -22 455 -4 474 74 876 366 1085 786 93 187 132 327 151
536 29 316 -55 658 -224 914 -205 309 -493 520 -847 619 -176 49 -450 60 -635
26z m292 -290 c9 0 13 -38 15 -142 l3 -143 153 -3 152 -3 0 -477 c0 -293 -4
-494 -11 -522 -16 -71 -67 -165 -116 -214 -65 -66 -135 -97 -235 -103 -136 -9
-240 28 -320 114 -28 29 -75 117 -88 162 -5 19 -13 26 -31 25 -29 -2 -300 -84
-313 -95 -11 -10 29 -129 73 -214 24 -47 63 -97 116 -152 66 -67 97 -89 165
-122 133 -63 192 -76 365 -75 172 0 245 14 360 72 162 81 287 220 346 388 55
152 52 124 58 704 l6 544 65 -64 c147 -147 229 -276 289 -457 44 -134 55 -204
55 -368 0 -164 -11 -234 -55 -368 -94 -284 -305 -529 -569 -662 -84 -43 -216
-88 -305 -106 -91 -18 -339 -18 -430 0 -89 18 -221 63 -305 106 -209 105 -398
294 -504 503 -90 178 -121 311 -121 527 0 216 31 349 121 527 79 157 227 324
374 424 116 79 273 146 405 174 69 15 221 29 250 24 11 -2 26 -4 32 -4z"/>
</g>
</svg>
